<?xml version="1.0" encoding="UTF-8"?> <svg xmlns="http://www.w3.org/2000/svg" width="60" height="60" viewBox="0 0 60 60" fill="none"> <path d="M47 17C44.794 17 43 15.206 43 13C43 12.447 42.553 12 42 12H10C9.447 12 9 12.447 9 13C9 15.206 7.206 17 5 17C4.447 17 4 17.447 4 18V26C4 26.553 4.447 27 5 27C7.206 27 9 28.794 9 31C9 31.553 9.447 32 10 32H42C42.553 32 43 31.553 43 31C43 28.794 44.794 27 47 27C47.553 27 48 26.553 48 26V18C48 17.447 47.553 17 47 17ZM46 25.083C43.491 25.506 41.506 27.491 41.083 30H10.917C10.494 27.491 8.509 25.506 6 25.083V18.917C8.509 18.494 10.494 16.509 10.917 14H41.083C41.506 16.509 43.491 18.494 46 18.917V25.083Z" fill="#FF6A00"></path> <path d="M26 17C23.243 17 21 19.243 21 22C21 24.757 23.243 27 26 27C28.757 27 31 24.757 31 22C31 19.243 28.757 17 26 17ZM26 25C24.346 25 23 23.654 23 22C23 20.346 24.346 19 26 19C27.654 19 29 20.346 29 22C29 23.654 27.654 25 26 25Z" fill="#FF6A00"></path> <path d="M59 0H9C8.447 0 8 0.447 8 1V4H5C4.447 4 4 4.447 4 5V8H1C0.447 8 0 8.447 0 9V35C0 35.553 0.447 36 1 36H51C51.553 36 52 35.553 52 35V32H55C55.553 32 56 31.553 56 31V28H59C59.553 28 60 27.553 60 27V1C60 0.447 59.553 0 59 0ZM50 34H2V10H5H50V31V34ZM54 30H52V9C52 8.447 51.553 8 51 8H6V6H54V30ZM58 26H56V5C56 4.447 55.553 4 55 4H10V2H58V26Z" fill="#FF6A00"></path> <path d="M47.6 39.2C47.298 38.971 46.891 38.936 46.553 39.105C46.214 39.275 46 39.621 46 40V44H30C29.447 44 29 44.447 29 45V53C29 53.553 29.447 54 30 54H46V59C46 59.388 46.225 59.741 46.576 59.905C46.711 59.969 46.855 60 47 60C47.229 60 47.457 59.921 47.641 59.769L59.641 49.769C59.875 49.573 60.008 49.281 60 48.975C59.992 48.669 59.845 48.384 59.6 48.201L47.6 39.2ZM48 56.865V53C48 52.447 47.553 52 47 52H31V46H47C47.553 46 48 45.553 48 45V42L57.389 49.041L48 56.865Z" fill="#FF6A00"></path> <path d="M26 44H22C21.447 44 21 44.447 21 45V53C21 53.553 21.447 54 22 54H26C26.553 54 27 53.553 27 53V45C27 44.447 26.553 44 26 44ZM25 52H23V46H25V52Z" fill="#FF6A00"></path> <path d="M16 54C16.553 54 17 53.553 17 53V45C17 44.447 16.553 44 16 44H12C11.447 44 11 44.447 11 45V53C11 53.553 11.447 54 12 54H16ZM13 46H15V52H13V46Z" fill="#FF6A00"></path> </svg> 