<?xml version="1.0" encoding="UTF-8"?> <svg xmlns="http://www.w3.org/2000/svg" width="23" height="23" viewBox="0 0 23 23" fill="none"> <path d="M5.34999 0.587494C5.20966 0.587521 5.07508 0.643285 4.97586 0.742523L0.742523 4.97586C0.643285 5.07508 0.587521 5.20966 0.587494 5.34999V21.225C0.587494 22.0953 1.30467 22.8125 2.17499 22.8125H16.9917C17.862 22.8125 18.5792 22.0953 18.5792 21.225V14.5649L22.658 10.4861C22.8646 10.2795 22.8646 9.94449 22.658 9.73784L20.5408 7.62066C20.4394 7.51975 20.3014 7.46419 20.1584 7.46666C20.0213 7.4687 19.8903 7.52392 19.793 7.62066L18.5792 8.83454V2.17499C18.5792 1.30467 17.862 0.587494 16.9917 0.587494H5.34999ZM5.87916 1.64583H16.9917C17.294 1.64583 17.5208 1.87267 17.5208 2.17499V9.89287L11.3264 16.0873C11.2263 16.1865 11.17 16.3216 11.1698 16.4625V18.0505H10.4396L10.0567 17.2847C9.86185 16.8939 9.30429 16.8939 9.10945 17.2847L8.62318 18.2572L7.96896 16.2945C7.89372 16.0687 7.67697 15.9209 7.43927 15.9333C7.24903 15.9438 7.07909 16.0557 6.99434 16.2263L6.08225 18.0505H5.34948C4.62821 18.0346 4.62821 19.1247 5.34948 19.1088H6.40833C6.60851 19.1084 6.7913 18.995 6.88065 18.8158L7.36899 17.8412L8.02322 19.8044C8.17236 20.2507 8.7862 20.295 8.99783 19.8747L9.58178 18.7047L9.63862 18.8158C9.72839 18.9958 9.91241 19.1093 10.1135 19.1088H13.8161C13.957 19.1088 14.092 19.0527 14.1913 18.9528L17.5208 15.6233V21.225C17.5208 21.5273 17.294 21.7542 16.9917 21.7542H2.17499C1.87268 21.7542 1.64583 21.5273 1.64583 21.225V5.87916H4.29166C5.16198 5.87916 5.87916 5.16198 5.87916 4.29166V1.64583ZM4.82083 2.3941V4.29166C4.82083 4.59398 4.59398 4.82083 4.29166 4.82083H2.3941L4.82083 2.3941ZM20.1661 8.74358L21.5351 10.113L13.5976 18.0505H12.2286V16.6811L20.1661 8.74358Z" fill="#FF6A00"></path> <path d="M4.29167 18.5792C4.29167 18.7195 4.23591 18.8541 4.13668 18.9533C4.03744 19.0526 3.90285 19.1083 3.7625 19.1083C3.62216 19.1083 3.48757 19.0526 3.38833 18.9533C3.28909 18.8541 3.23334 18.7195 3.23334 18.5792C3.23334 18.5097 3.24702 18.4408 3.27362 18.3766C3.30021 18.3124 3.33919 18.2541 3.38833 18.205C3.43746 18.1558 3.4958 18.1169 3.56 18.0903C3.6242 18.0637 3.69301 18.05 3.7625 18.05C3.83199 18.05 3.90081 18.0637 3.96501 18.0903C4.02921 18.1169 4.08754 18.1558 4.13668 18.205C4.18582 18.2541 4.2248 18.3124 4.25139 18.3766C4.27798 18.4408 4.29167 18.5097 4.29167 18.5792Z" fill="#FF6A00"></path> <path d="M4.82031 10.1129C4.67993 10.1129 4.5453 10.1687 4.44604 10.2679C4.34678 10.3672 4.29102 10.5018 4.29102 10.6422C4.29102 10.7826 4.34678 10.9172 4.44604 11.0165C4.5453 11.1157 4.67993 11.1715 4.82031 11.1715H13.2871C13.4275 11.1715 13.5621 11.1157 13.6614 11.0165C13.7606 10.9172 13.8164 10.7826 13.8164 10.6422C13.8164 10.5018 13.7606 10.3672 13.6614 10.2679C13.5621 10.1687 13.4275 10.1129 13.2871 10.1129H4.82031Z" fill="#FF6A00"></path> <path d="M8.52539 7.46643C8.38501 7.46643 8.25038 7.5222 8.15112 7.62146C8.05186 7.72072 7.99609 7.85535 7.99609 7.99573C7.99609 8.13611 8.05186 8.27073 8.15112 8.37C8.25038 8.46926 8.38501 8.52502 8.52539 8.52502H13.2871C13.4275 8.52502 13.5621 8.46926 13.6614 8.37C13.7606 8.27073 13.8164 8.13611 13.8164 7.99573C13.8164 7.85535 13.7606 7.72072 13.6614 7.62146C13.5621 7.5222 13.4275 7.46643 13.2871 7.46643H8.52539Z" fill="#FF6A00"></path> <path d="M4.82032 12.7574C4.67994 12.7574 4.54531 12.8132 4.44604 12.9125C4.34678 13.0117 4.29102 13.1464 4.29102 13.2867C4.29102 13.4271 4.34678 13.5617 4.44604 13.661C4.54531 13.7603 4.67994 13.816 4.82032 13.816H9.05469C9.19507 13.816 9.3297 13.7603 9.42896 13.661C9.52823 13.5617 9.58399 13.4271 9.58399 13.2867C9.58399 13.1464 9.52823 13.0117 9.42896 12.9125C9.3297 12.8132 9.19507 12.7574 9.05469 12.7574H4.82032Z" fill="#FF6A00"></path> </svg> 