<?xml version="1.0" encoding="UTF-8"?> <svg xmlns="http://www.w3.org/2000/svg" width="94" height="96" viewBox="0 0 94 96" fill="none"> <path d="M93.5 65.5L82.8 46.1C80.5 42 75.4 40.5 71.3 42.7C70.2 43.3 69.4 44.1 68.7 45V14.3C68.7 6.7 62.5 0.5 54.9 0.5H13.9C6.30001 0.5 0.200012 6.7 0.200012 14.3V55.2C0.200012 62.8 6.30001 68.9 13.9 68.9H37.2L40.9 75.6L36.1 74.2C32.2 73.1 27.9 74.9 26.1 78.5C25 80.7 24.8 83.2 25.7 85.5C26.6 87.8 28.3 89.6 30.6 90.5L43.1 95.3C43.4 95.4 43.8 95.5 44.1 95.5C45.3 95.5 46.3 94.8 46.8 93.7C47.4 92.2 46.6 90.6 45.2 90L32.7 85.2C31.9 84.9 31.4 84.3 31.1 83.5C30.8 82.7 30.9 81.9 31.2 81.2C31.8 80 33.2 79.4 34.5 79.8L42.9 82.2C44.5 82.7 46.3 82.1 47.3 80.8C48.4 79.5 48.5 77.7 47.7 76.2L28.5 41C27.8 39.7 28.3 38 29.6 37.2C30.3 36.8 31 36.8 31.7 37C32.4 37.2 33 37.7 33.4 38.3L46.6 62.4C47.4 63.8 49.1 64.3 50.5 63.5C51.9 62.7 52.4 61 51.6 59.6L49.8 56.3C49.1 55 49.6 53.3 50.9 52.5C51.6 52.1 52.3 52.1 53 52.3C53.7 52.5 54.3 53 54.7 53.6L58.1 59.9C58.9 61.3 60.6 61.8 62 61C63.4 60.2 63.9 58.5 63.1 57.1L61.3 54C60.9 53.3 60.9 52.6 61.1 51.9C61.3 51.2 61.8 50.6 62.4 50.2C63.7 49.5 65.4 50 66.2 51.3L67.8 54.2L69.6 57.5C70.4 58.9 72.1 59.4 73.5 58.6C74.9 57.8 75.4 56.1 74.6 54.7L72.9 51.7C72.9 51.6 72.8 51.5 72.8 51.4C72.1 50.1 72.6 48.4 73.9 47.6C75.2 46.9 76.9 47.4 77.7 48.7L88.4 68.1C89.2 69.5 90.9 70 92.3 69.2C93.7 68.6 94.2 66.9 93.5 65.5ZM59.7 45.2C58.5 45.9 57.5 46.8 56.7 47.9C56.1 47.5 55.3 47.2 54.6 47C52.4 46.4 50.1 46.6 48.1 47.7C47.2 48.2 46.5 48.8 45.9 49.4L38.3 35.6C37.2 33.6 35.4 32.2 33.2 31.5C31 30.9 28.7 31.1 26.7 32.2C22.6 34.5 21.1 39.6 23.4 43.7L34.1 63.1H13.9C9.50001 63.1 5.90001 59.5 5.90001 55.1V14.3C5.90001 9.9 9.50001 6.3 13.9 6.3H54.8C59.2 6.3 62.8 9.9 62.8 14.3V44.2C61.8 44.3 60.7 44.6 59.7 45.2Z" fill="#FF6A00"></path> </svg> 