<?xml version="1.0" encoding="UTF-8"?> <svg xmlns="http://www.w3.org/2000/svg" width="72" height="82" viewBox="0 0 72 82" fill="none"> <g clip-path="url(#clip0)"> <path d="M71 36.001H1V81H71V36.001Z" stroke="#FF6A00" stroke-width="4" stroke-miterlimit="10" stroke-linecap="round" stroke-linejoin="round"></path> <path d="M60.999 21H10.999V36H60.999V21Z" stroke="#FF6A00" stroke-width="3" stroke-miterlimit="10" stroke-linecap="round" stroke-linejoin="round"></path> <path d="M56 11.001H15.998V21.001H56V11.001Z" stroke="#FF6A00" stroke-width="3" stroke-miterlimit="10" stroke-linecap="round" stroke-linejoin="round"></path> <path d="M51 1H21V11.001H51V1Z" stroke="#FF6A00" stroke-width="3" stroke-miterlimit="10" stroke-linecap="round" stroke-linejoin="round"></path> <path d="M60.999 6H51V1H21V6H10.999L1 36.001H71L60.999 6Z" stroke="#FF6A00" stroke-width="4" stroke-miterlimit="10" stroke-linecap="round" stroke-linejoin="round"></path> <path d="M51 46H21C18.237 46 15.998 48.239 15.998 50.999C15.998 53.762 18.237 56.002 21 56.002C21.004 56.002 21.011 55.998 21.018 55.998H50.98C50.987 55.998 50.994 56.002 50.998 56.002C53.762 56.002 56.001 53.762 56.001 50.999C56 48.239 53.764 46 51 46Z" stroke="#FF6A00" stroke-width="4" stroke-miterlimit="10" stroke-linecap="round" stroke-linejoin="round"></path> </g> <defs> <clipPath id="clip0"> <rect width="72" height="82" fill="white"></rect> </clipPath> </defs> </svg> 